<?xml version="1.0" encoding="UTF-8" standalone="no"?>
<!-- Created with Inkscape (http://www.inkscape.org/) -->

<svg
   xmlns:dc="http://purl.org/dc/elements/1.1/"
   xmlns:cc="http://creativecommons.org/ns#"
   xmlns:rdf="http://www.w3.org/1999/02/22-rdf-syntax-ns#"
   xmlns:svg="http://www.w3.org/2000/svg"
   xmlns="http://www.w3.org/2000/svg"
   xmlns:sodipodi="http://sodipodi.sourceforge.net/DTD/sodipodi-0.dtd"
   xmlns:inkscape="http://www.inkscape.org/namespaces/inkscape"
   id="svg5495"
   version="1.1"
   inkscape:version="0.91 r13725"
   width="24"
   height="24"
   viewBox="0 0 24 24"
   sodipodi:docname="cgdr-logo.svg">
  <sodipodi:namedview
     pagecolor="#ffffff"
     bordercolor="#666666"
     borderopacity="1"
     objecttolerance="10"
     gridtolerance="10"
     guidetolerance="10"
     inkscape:pageopacity="0"
     inkscape:pageshadow="2"
     inkscape:window-width="1920"
     inkscape:window-height="1017"
     id="namedview5497"
     showgrid="false"
     showguides="true"
     inkscape:guide-bbox="true"
     inkscape:zoom="2.8284271"
     inkscape:cx="5.3922525"
     inkscape:cy="11.582128"
     inkscape:window-x="-8"
     inkscape:window-y="376"
     inkscape:window-maximized="1"
     inkscape:current-layer="svg5495" />
  <metadata
     id="metadata5501">
    <rdf:RDF>
      <cc:Work
         rdf:about="">
        <dc:format>image/svg+xml</dc:format>
        <dc:type
           rdf:resource="http://purl.org/dc/dcmitype/StillImage" />
        <dc:title></dc:title>
      </cc:Work>
    </rdf:RDF>
  </metadata>
  <defs
     id="defs5499">
    <filter
       style="color-interpolation-filters:sRGB;"
       inkscape:label="Drop Shadow"
       id="filter6315">
      <feFlood
         flood-opacity="0.498039"
         flood-color="rgb(0,0,0)"
         result="flood"
         id="feFlood6317" />
      <feComposite
         in="flood"
         in2="SourceGraphic"
         operator="in"
         result="composite1"
         id="feComposite6319" />
      <feGaussianBlur
         in="composite1"
         stdDeviation="3"
         result="blur"
         id="feGaussianBlur6321" />
      <feOffset
         dx="6"
         dy="6"
         result="offset"
         id="feOffset6323" />
      <feComposite
         in="SourceGraphic"
         in2="offset"
         operator="over"
         result="fbSourceGraphic"
         id="feComposite6325" />
      <feColorMatrix
         result="fbSourceGraphicAlpha"
         in="fbSourceGraphic"
         values="0 0 0 -1 0 0 0 0 -1 0 0 0 0 -1 0 0 0 0 1 0"
         id="feColorMatrix6327" />
      <feFlood
         id="feFlood6329"
         flood-opacity="0.498039"
         flood-color="rgb(0,0,0)"
         result="flood"
         in="fbSourceGraphic" />
      <feComposite
         id="feComposite6331"
         in2="fbSourceGraphic"
         in="flood"
         operator="in"
         result="composite1" />
      <feGaussianBlur
         id="feGaussianBlur6333"
         in="composite1"
         stdDeviation="3"
         result="blur" />
      <feOffset
         id="feOffset6335"
         dx="6"
         dy="6"
         result="offset" />
      <feComposite
         id="feComposite6337"
         in2="offset"
         in="fbSourceGraphic"
         operator="over"
         result="fbSourceGraphic" />
      <feColorMatrix
         result="fbSourceGraphicAlpha"
         in="fbSourceGraphic"
         values="0 0 0 -1 0 0 0 0 -1 0 0 0 0 -1 0 0 0 0 1 0"
         id="feColorMatrix6339" />
      <feFlood
         id="feFlood6341"
         flood-opacity="0.498039"
         flood-color="rgb(0,0,0)"
         result="flood"
         in="fbSourceGraphic" />
      <feComposite
         id="feComposite6343"
         in2="fbSourceGraphic"
         in="flood"
         operator="in"
         result="composite1" />
      <feGaussianBlur
         id="feGaussianBlur6345"
         in="composite1"
         stdDeviation="3"
         result="blur" />
      <feOffset
         id="feOffset6347"
         dx="6"
         dy="6"
         result="offset" />
      <feComposite
         id="feComposite6349"
         in2="offset"
         in="fbSourceGraphic"
         operator="over"
         result="fbSourceGraphic" />
      <feColorMatrix
         result="fbSourceGraphicAlpha"
         in="fbSourceGraphic"
         values="0 0 0 -1 0 0 0 0 -1 0 0 0 0 -1 0 0 0 0 1 0"
         id="feColorMatrix6351" />
      <feFlood
         id="feFlood6353"
         flood-opacity="1"
         flood-color="rgb(0,0,0)"
         result="flood"
         in="fbSourceGraphic" />
      <feComposite
         id="feComposite6355"
         in2="fbSourceGraphic"
         in="flood"
         operator="in"
         result="composite1" />
      <feGaussianBlur
         id="feGaussianBlur6357"
         in="composite1"
         stdDeviation="3"
         result="blur" />
      <feOffset
         id="feOffset6359"
         dx="6"
         dy="6"
         result="offset" />
      <feComposite
         id="feComposite6361"
         in2="offset"
         in="fbSourceGraphic"
         operator="over"
         result="fbSourceGraphic" />
      <feColorMatrix
         result="fbSourceGraphicAlpha"
         in="fbSourceGraphic"
         values="0 0 0 -1 0 0 0 0 -1 0 0 0 0 -1 0 0 0 0 1 0"
         id="feColorMatrix6363" />
      <feFlood
         id="feFlood6365"
         flood-opacity="1"
         flood-color="rgb(0,0,0)"
         result="flood"
         in="fbSourceGraphic" />
      <feComposite
         id="feComposite6367"
         in2="fbSourceGraphic"
         in="flood"
         operator="in"
         result="composite1" />
      <feGaussianBlur
         id="feGaussianBlur6369"
         in="composite1"
         stdDeviation="43.8"
         result="blur" />
      <feOffset
         id="feOffset6371"
         dx="34.1"
         dy="35.2"
         result="offset" />
      <feComposite
         id="feComposite6373"
         in2="offset"
         in="fbSourceGraphic"
         operator="over"
         result="fbSourceGraphic" />
      <feColorMatrix
         result="fbSourceGraphicAlpha"
         in="fbSourceGraphic"
         values="0 0 0 -1 0 0 0 0 -1 0 0 0 0 -1 0 0 0 0 1 0"
         id="feColorMatrix6375" />
      <feFlood
         id="feFlood6377"
         flood-opacity="1"
         flood-color="rgb(0,0,0)"
         result="flood"
         in="fbSourceGraphic" />
      <feComposite
         id="feComposite6379"
         in2="fbSourceGraphic"
         in="flood"
         operator="in"
         result="composite1" />
      <feGaussianBlur
         id="feGaussianBlur6381"
         in="composite1"
         stdDeviation="43.8"
         result="blur" />
      <feOffset
         id="feOffset6383"
         dx="34.1"
         dy="35.2"
         result="offset" />
      <feComposite
         id="feComposite6385"
         in2="offset"
         in="fbSourceGraphic"
         operator="over"
         result="composite2" />
    </filter>
  </defs>
  <path
     style="fill:#303030;fill-rule:evenodd;stroke:#303030;stroke-width:0.1;stroke-linecap:butt;stroke-linejoin:miter;stroke-miterlimit:4;stroke-dasharray:none;stroke-opacity:1;fill-opacity:1"
     d="M 0,3.7935248 0,12 0,20.15286 C 0.02996215,22.370059 1.5160849,23.97603 3.9190495,24 L 20.422203,24 C 22.657485,23.982023 23.93997,22.435976 24,20.116905 L 24,4.0092523 C 24.005887,1.5941974 22.681454,0.00609791 20.24243,0 L 3.6673674,0 C 1.4561606,-0.01187938 0.01797729,1.3604927 0,3.7935248 Z"
     id="path5505"
     inkscape:connector-curvature="0"
     sodipodi:nodetypes="cccccccccc" />
  <path
     style="fill:#ffffff;fill-rule:evenodd;stroke:#ffffff;stroke-width:0.1;stroke-linecap:butt;stroke-linejoin:miter;stroke-miterlimit:4;stroke-dasharray:none;stroke-opacity:1;fill-opacity:1"
     d="m 1.4022287,19.146131 0,-14.6335145 C 1.4681455,2.3133944 2.2891084,1.4444919 4.3505044,1.420522 l 15.2447426,0 c 2.01945,10e-8 2.996215,1.3303198 2.984231,3.1280491 l 0,15.0290149 c -0.04195,1.605972 -1.090623,2.960261 -3.199958,2.984231 l -14.5975606,0 C 2.6306769,22.573801 1.4142136,21.327376 1.4022287,19.146131 Z"
     id="path6055"
     inkscape:connector-curvature="0"
     sodipodi:nodetypes="ccccccccc" />
  <path
     style="fill:#0066b3;fill-rule:evenodd;stroke:#0066b3;stroke-width:0.1;stroke-linecap:butt;stroke-linejoin:miter;stroke-miterlimit:4;stroke-dasharray:none;stroke-opacity:1;fill-opacity:1"
     d="m 6.112279,17.29447 0.988751,0.009 c 0.020974,-0.931823 -0.5782695,-2.016452 -1.6359335,-2.040422 -2.5048358,0.01798 -2.56476,5.447119 -0.017977,5.474085 1.1924937,-0.003 1.6748843,-1.138562 1.6898654,-2.031434 l -1.015717,-0.02697 c 0.017977,0.512353 -0.1438183,1.204478 -0.6741484,1.213467 -1.1115954,0.01798 -1.0906214,-3.775231 0.00899,-3.802197 0.5513031,0.01498 0.6621625,0.767026 0.6561695,1.204471 z"
     id="path6057"
     inkscape:connector-curvature="0"
     sodipodi:nodetypes="ccccccccc" />
  <path
     style="fill:#0066b3;fill-rule:evenodd;stroke:#0066b3;stroke-width:0.1;stroke-linecap:butt;stroke-linejoin:miter;stroke-miterlimit:4;stroke-dasharray:none;stroke-opacity:1;fill-opacity:1"
     d="m 10.570647,17.015822 1.078638,0.02697 c 0.01198,-0.695122 -0.605236,-1.758778 -1.8246954,-1.761774 -2.6276808,-0.003 -2.6666317,5.423149 0.017977,5.43813 0.6172204,-0.01198 1.2344404,-0.68014 1.2314444,-1.078637 l -0.009,1.033694 0.548307,0 0.01798,-2.948276 -1.6359335,-0.01798 0.00899,0.826956 0.584262,0 c 0.009,0.832948 -0.341567,1.36927 -0.7550438,1.366274 -1.3782594,0.02697 -1.3542902,-3.829163 -0.00899,-3.829163 0.5992458,0.009 0.7400698,0.575272 0.7460648,0.943806 z"
     id="path6059"
     inkscape:connector-curvature="0"
     sodipodi:nodetypes="cccccccccccccc" />
  <path
     style="fill:#0066b3;fill-rule:evenodd;stroke:#0066b3;stroke-width:0.1;stroke-linecap:butt;stroke-linejoin:miter;stroke-miterlimit:4;stroke-dasharray:none;stroke-opacity:1;fill-opacity:1"
     d="m 12.691968,15.379889 -0.009,5.267346 1.204478,0 c 1.471142,-0.009 2.214204,-0.737068 2.202219,-2.696593 -0.006,-1.791737 -0.793997,-2.567757 -2.121321,-2.570753 z"
     id="path6061"
     inkscape:connector-curvature="0"
     sodipodi:nodetypes="cccccc" />
  <path
     style="fill:#ffffff;fill-rule:evenodd;stroke:#ffffff;stroke-width:0.1;stroke-linecap:butt;stroke-linejoin:miter;stroke-miterlimit:4;stroke-dasharray:none;stroke-opacity:1;fill-opacity:1"
     d="m 13.662741,16.143924 -0.01798,3.667367 c 0.877891,-0.003 1.468146,-0.392504 1.474138,-1.815706 10e-7,-1.489119 -0.817965,-1.854657 -1.456158,-1.851661 z"
     id="path6063"
     inkscape:connector-curvature="0"
     sodipodi:nodetypes="cccc" />
  <path
     style="fill:#0066b3;fill-rule:evenodd;stroke:#0066b3;stroke-width:0.1;stroke-linecap:butt;stroke-linejoin:miter;stroke-miterlimit:4;stroke-dasharray:none;stroke-opacity:1;fill-opacity:1"
     d="m 17.168313,15.388878 -0.009,5.231391 1.060661,0 -0.009,-2.112331 c 1.069649,0.009 0.808978,2.094354 1.375263,2.076377 l 1.087626,-0.02697 c -0.389508,0.003 -0.868903,-2.259146 -1.303354,-2.25615 0.841936,-0.01198 0.955793,-0.994744 0.961785,-1.384252 -0.01198,-0.3955 -0.257674,-1.519081 -1.276387,-1.537058 z"
     id="path6065"
     inkscape:connector-curvature="0"
     sodipodi:nodetypes="cccccccccc" />
  <path
     style="fill:#ffffff;fill-rule:evenodd;stroke:#ffffff;stroke-width:0.1;stroke-linecap:butt;stroke-linejoin:miter;stroke-miterlimit:4;stroke-dasharray:none;stroke-opacity:1;fill-opacity:1"
     d="m 18.175041,16.125947 0,1.680876 c 0.539319,0 1.096615,-0.13483 1.105603,-0.86291 -0.009,-0.70411 -0.575273,-0.805981 -1.105603,-0.817966 z"
     id="path6067"
     inkscape:connector-curvature="0"
     sodipodi:nodetypes="cccc" />
  <path
     style="fill:none;fill-rule:evenodd;stroke:#000000;stroke-width:0.1;stroke-linecap:butt;stroke-linejoin:miter;stroke-opacity:1;stroke-miterlimit:4;stroke-dasharray:none"
     d="m 8.4025424,11.059322 0,1.474576 -0.6991526,0 0,-1.754237 L 8.2627119,11.25 Z"
     id="path6211"
     inkscape:connector-curvature="0" />
  <path
     style="fill:#000000;fill-opacity:0.11764706;fill-rule:evenodd;stroke:#000000;stroke-width:0;stroke-linecap:butt;stroke-linejoin:miter;stroke-miterlimit:4;stroke-dasharray:none;stroke-opacity:1"
     d="m 8.396893,7.2197978 0,5.3638202 6.043553,0 0,-5.3859391 -3.049398,-2.554727 z"
     id="path6389"
     inkscape:connector-curvature="0" />
  <path
     style="fill:#0066b3;fill-rule:evenodd;stroke:#0066b3;stroke-width:0.1;stroke-linecap:butt;stroke-linejoin:miter;stroke-miterlimit:4;stroke-dasharray:none;stroke-opacity:1;fill-opacity:1"
     d="m 7.7033898,7.716102 0,4.817796 0.6991526,0 0,-5.288135 2.9999996,-2.5423732 3,2.5423732 0,5.288135 0.699153,0 0,-4.817796 0.737289,0.622881 0.775423,-0.6355932 -5.211865,-4.4872881 -4.9830505,4.3728813 0.6864407,0.75 z"
     id="path6215"
     inkscape:connector-curvature="0"
     sodipodi:nodetypes="ccccccccccccccc" />
  <path
     style="fill:#000000;fill-opacity:0.11764706;fill-rule:evenodd;stroke:#000000;stroke-width:0;stroke-linecap:butt;stroke-linejoin:miter;stroke-miterlimit:4;stroke-dasharray:none;stroke-opacity:1"
     d="m 15.780576,12.580514 0.02072,-3.1589209 2.296388,-1.9840957 2.308485,1.9719991 0.04957,3.1686655 z"
     id="path6387"
     inkscape:connector-curvature="0"
     sodipodi:nodetypes="cccccc" />
  <path
     style="fill:#f69147;fill-opacity:1;fill-rule:evenodd;stroke:#f69147;stroke-width:0.09985594;stroke-linecap:butt;stroke-linejoin:miter;stroke-miterlimit:4;stroke-dasharray:none;stroke-opacity:1"
     d="m 15.298605,9.796964 0,2.733577 0.503377,0 0,-3.101042 2.301149,-1.9359098 2.301149,1.9359098 0,3.101042 0.494388,0 0,-2.733577 0.521354,0.430202 0.467421,-0.5646405 -3.784312,-3.2534044 -3.694423,3.2534044 0.46742,0.5646405 z"
     id="path6093"
     inkscape:connector-curvature="0" />
  <path
     style="fill:#000000;fill-opacity:0.11764706;fill-rule:evenodd;stroke:#000000;stroke-width:0;stroke-linecap:butt;stroke-linejoin:miter;stroke-miterlimit:4;stroke-dasharray:none;stroke-opacity:1"
     d="m 3.5189611,10.359202 0,2.228993 3.7730776,0 0,-2.245669 -1.9003495,-1.5508461 z"
     id="path6391"
     inkscape:connector-curvature="0" />
  <path
     inkscape:connector-curvature="0"
     id="path6152"
     d="m 3.0508912,10.836243 0,1.7032 0.451263,0 0,-2.180797 1.900389,-1.5665218 1.9003891,1.5665218 0,2.180797 0.4512629,0 0,-1.7032 0.4957537,0.413919 0.4893978,-0.554014 -3.3368035,-2.8592197 -3.2478221,2.8592197 0.4893978,0.554014 z"
     style="fill:#bae54a;fill-opacity:1;fill-rule:evenodd;stroke:#bae54a;stroke-width:0.10009376;stroke-linecap:butt;stroke-linejoin:miter;stroke-miterlimit:4;stroke-dasharray:none;stroke-opacity:1;" />
</svg>
