<?xml version="1.0" encoding="UTF-8" standalone="no"?>
<!-- Created with Inkscape (http://www.inkscape.org/) -->

<svg
   xmlns:dc="http://purl.org/dc/elements/1.1/"
   xmlns:cc="http://creativecommons.org/ns#"
   xmlns:rdf="http://www.w3.org/1999/02/22-rdf-syntax-ns#"
   xmlns:svg="http://www.w3.org/2000/svg"
   xmlns="http://www.w3.org/2000/svg"
   xmlns:sodipodi="http://sodipodi.sourceforge.net/DTD/sodipodi-0.dtd"
   xmlns:inkscape="http://www.inkscape.org/namespaces/inkscape"
   width="120.23975mm"
   height="60.438549mm"
   viewBox="0 0 426.04637 214.15234"
   id="svg2"
   version="1.1"
   inkscape:version="0.91 r13725"
   sodipodi:docname="logout-logo-azul.svg">
  <sodipodi:namedview
     id="base"
     pagecolor="#ffffff"
     bordercolor="#666666"
     borderopacity="1.0"
     inkscape:pageopacity="0.0"
     inkscape:pageshadow="2"
     inkscape:zoom="0.7"
     inkscape:cx="320.39166"
     inkscape:cy="85.92168"
     inkscape:document-units="px"
     inkscape:current-layer="layer1"
     showgrid="false"
     showguides="true"
     inkscape:guide-bbox="true"
     inkscape:window-width="1920"
     inkscape:window-height="1017"
     inkscape:window-x="-8"
     inkscape:window-y="376"
     inkscape:window-maximized="1"
     fit-margin-top="0"
     fit-margin-left="0"
     fit-margin-right="0"
     fit-margin-bottom="0">
    <sodipodi:guide
       id="guide4182"
       orientation="0,744.0945"
       position="-208.59649,-177.01731" />
  </sodipodi:namedview>
  <defs
     id="defs4" />
  <metadata
     id="metadata7">
    <rdf:RDF>
      <cc:Work
         rdf:about="">
        <dc:format>image/svg+xml</dc:format>
        <dc:type
           rdf:resource="http://purl.org/dc/dcmitype/StillImage" />
        <dc:title></dc:title>
      </cc:Work>
    </rdf:RDF>
  </metadata>
  <g
     id="layer1"
     inkscape:groupmode="layer"
     inkscape:label="Camada 1"
     transform="translate(-208.5965,-310.40516)">
    <path
       inkscape:connector-curvature="0"
       id="path4163"
       d="m 208.5965,310.40516 0,214.15234 223.24372,0 0,-214.15234 z"
       style="fill:#2c47aa;fill-opacity:1;fill-rule:evenodd;stroke:none;stroke-width:1px;stroke-linecap:butt;stroke-linejoin:miter;stroke-opacity:1" />
    <path
       sodipodi:nodetypes="cccccccccccccccccccccccccccccccccccccccccc"
       inkscape:connector-curvature="0"
       id="path4165"
       d="m 239.64286,521.90585 13.57143,-14.1865 0,-26.42857 -25.35715,0 c 3.9067,-14.65401 12.35908,-23.87845 25.35715,-24.64286 l 0,-131.59555 135.35714,0 0,81.44355 -21.75979,0 -17.9302,-22.34963 c -3.36718,-3.87225 -5.85047,-6.22927 -13.13199,-6.31345 l -44.44671,0 c -7.28152,0.4209 -10.01734,3.74599 -13.13198,8.83884 l -12.75318,20.45559 c -3.99852,7.91286 7.02898,14.05795 11.86929,7.82868 l 15.15229,-23.23351 18.18275,0 -11.99556,22.09709 c -4.9245,9.17555 -4.41942,13.55288 -4.9245,18.43528 l -1.76776,21.97082 c -0.16836,2.94628 -1.47314,6.65017 -5.05077,6.9448 l -33.66903,0 c -10.66363,0 -17.66545,9.09137 -18.35382,16.28871 l 62.25065,0 c 8.62839,0 11.19586,-5.55584 11.86929,-10.98541 l 3.53553,-29.29443 31.441,57.32616 c 2.10448,3.70389 4.84031,7.28152 8.20749,8.46003 l 17.80394,0 -39.01714,-75.88771 12.2481,-25.00128 13.00571,16.03617 c 1.93613,2.23076 3.49345,2.31494 6.9448,2.14658 l 25.42159,0 0,87.63073 -14.01587,14.01587 -24.28516,0 16.92005,-15.78364 -14.52094,0 c -8.71257,0.37881 -10.35406,4.29315 -14.77348,7.95496 l -7.70242,7.82868 z"
       style="fill:#ffffff;fill-opacity:1;fill-rule:evenodd;stroke:none;stroke-width:1px;stroke-linecap:butt;stroke-linejoin:miter;stroke-opacity:1" />
    <ellipse
       ry="16.036171"
       rx="16.85692"
       cy="359.14502"
       cx="339.85321"
       id="path4173"
       style="fill:#2c47aa;fill-opacity:1;stroke:none;stroke-width:0.1;stroke-miterlimit:4;stroke-dasharray:none;stroke-opacity:1" />
    <path
       inkscape:connector-curvature="0"
       id="path4175"
       d="m 456.07143,431.29078 0,-40.71429 96.42858,0 -59.64286,-52.5 57.04465,0 84.74106,73.21429 -84.74106,72.85714 -57.04465,0 59.64286,-52.85714 z"
       style="fill:#2c47aa;fill-opacity:1;fill-rule:evenodd;stroke:none;stroke-width:1px;stroke-linecap:butt;stroke-linejoin:miter;stroke-opacity:1" />
  </g>
</svg>
