<?xml version="1.0" encoding="UTF-8" standalone="no"?>
<!-- Created with Inkscape (http://www.inkscape.org/) -->

<svg
   xmlns:dc="http://purl.org/dc/elements/1.1/"
   xmlns:cc="http://creativecommons.org/ns#"
   xmlns:rdf="http://www.w3.org/1999/02/22-rdf-syntax-ns#"
   xmlns:svg="http://www.w3.org/2000/svg"
   xmlns="http://www.w3.org/2000/svg"
   xmlns:sodipodi="http://sodipodi.sourceforge.net/DTD/sodipodi-0.dtd"
   xmlns:inkscape="http://www.inkscape.org/namespaces/inkscape"
   id="svg6393"
   version="1.1"
   inkscape:version="0.91 r13725"
   width="24"
   height="24"
   viewBox="0 0 24 24"
   sodipodi:docname="profaixa-logo.svg">
  <sodipodi:namedview
     pagecolor="#ffffff"
     bordercolor="#666666"
     borderopacity="1"
     objecttolerance="10"
     gridtolerance="10"
     guidetolerance="10"
     inkscape:pageopacity="0"
     inkscape:pageshadow="2"
     inkscape:window-width="1920"
     inkscape:window-height="1017"
     id="namedview6395"
     showgrid="false"
     showguides="true"
     inkscape:guide-bbox="true"
     inkscape:zoom="22.627417"
     inkscape:cx="12.660849"
     inkscape:cy="14.134659"
     inkscape:window-x="-8"
     inkscape:window-y="376"
     inkscape:window-maximized="1"
     inkscape:current-layer="svg6393" />
  <metadata
     id="metadata6399">
    <rdf:RDF>
      <cc:Work
         rdf:about="">
        <dc:format>image/svg+xml</dc:format>
        <dc:type
           rdf:resource="http://purl.org/dc/dcmitype/StillImage" />
        <dc:title></dc:title>
      </cc:Work>
    </rdf:RDF>
  </metadata>
  <defs
     id="defs6397" />
  <path
     sodipodi:nodetypes="cccccccccc"
     inkscape:connector-curvature="0"
     id="path5505"
     d="m 0.06573066,3.7997319 0,8.2064751 0,8.15286 c 0.02996,2.217199 1.51608494,3.82317 3.91904934,3.84714 l 16.503153,0 c 2.235282,-0.01798 3.517767,-1.564024 3.577797,-3.883095 l 0,-16.1076531 c 0.0059,-2.415054 -1.318546,-4.00315385 -3.75757,-4.00925185 l -16.5750621,0 C 1.5218906,-0.00567195 0.08370766,1.3666998 0.06573066,3.7997319 Z"
     style="fill:#303030;fill-opacity:1;fill-rule:evenodd;stroke:#303030;stroke-width:0.1;stroke-linecap:butt;stroke-linejoin:miter;stroke-miterlimit:4;stroke-dasharray:none;stroke-opacity:1" />
  <path
     sodipodi:nodetypes="ccccccccc"
     inkscape:connector-curvature="0"
     id="path6055"
     d="m 1.4679596,19.152338 0,-14.6335141 c 0.06592,-2.199222 0.886879,-3.0681249 2.9482753,-3.0920948 l 15.2447421,0 c 2.01945,1e-7 2.996215,1.3303198 2.984231,3.1280488 l 0,15.0290151 c -0.04195,1.605972 -1.090623,2.960261 -3.199958,2.984231 l -14.5975601,0 C 2.6964076,22.580004 1.4799436,21.333583 1.4679596,19.152338 Z"
     style="fill:#ffffff;fill-opacity:1;fill-rule:evenodd;stroke:#ffffff;stroke-width:0.1;stroke-linecap:butt;stroke-linejoin:miter;stroke-miterlimit:4;stroke-dasharray:none;stroke-opacity:1" />
  <path
     inkscape:connector-curvature="0"
     id="path7064"
     d="m 2.3516949,21.254237 0,-6.902542 1.7889301,-0.0039 c 0.1744571,-7e-6 0.3098517,0.12101 0.3085275,0.292836 l 0,3.164062 c 0.00132,0.195048 -0.114632,0.328741 -0.3046213,0.335143 l -1.2462261,0 0,3.114407 z"
     style="fill:#0066b3;fill-rule:evenodd;stroke:#0066b3;stroke-width:0.1;stroke-linecap:butt;stroke-linejoin:miter;stroke-miterlimit:4;stroke-dasharray:none;stroke-opacity:1;fill-opacity:1"
     sodipodi:nodetypes="ccccccccc" />
  <path
     inkscape:connector-curvature="0"
     id="path7066"
     d="m 2.8983051,17.605932 0,-2.707627 0.8595074,0 c 0.0834,0.0013 0.1433616,0.0691 0.1447299,0.144664 l 0,2.417968 c -0.00137,0.07568 -0.069143,0.143538 -0.1447299,0.144995 z"
     style="fill:#ffffff;fill-rule:evenodd;stroke:#ffffff;stroke-width:0.1;stroke-linecap:butt;stroke-linejoin:miter;stroke-miterlimit:4;stroke-dasharray:none;stroke-opacity:1;fill-opacity:1"
     sodipodi:nodetypes="ccccccc" />
  <path
     inkscape:connector-curvature="0"
     id="path7068"
     d="m 5.4025424,21.254237 0,-4.992518 c 0,-0.22877 0.097438,-0.346465 0.3162076,-0.346465 l 1.1202331,0 0,0.533898 -0.7725768,0 c -0.078246,0 -0.1172537,0.03512 -0.1172537,0.128973 l 0,4.676112 z"
     style="fill:#0066b3;fill-rule:evenodd;stroke:#0066b3;stroke-width:0.1;stroke-linecap:butt;stroke-linejoin:miter;stroke-miterlimit:4;stroke-dasharray:none;stroke-opacity:1;fill-opacity:1"
     sodipodi:nodetypes="ccccccccc" />
  <path
     inkscape:connector-curvature="0"
     id="path7070"
     d="m 7.2457627,20.835937 0,-4.574218 c 0,-0.236702 0.097512,-0.346465 0.3362685,-0.346465 l 1.3515626,0 c 0.2206024,0 0.3206435,0.125412 0.3206435,0.338652 l 0,4.59375 c 0,0.257026 -0.1299828,0.406581 -0.3636123,0.406581 l -1.2460937,0 c -0.2267302,0 -0.3987686,-0.173112 -0.3987686,-0.4183 z"
     style="fill:#0066b3;fill-rule:evenodd;stroke:#0066b3;stroke-width:0.1;stroke-linecap:butt;stroke-linejoin:miter;stroke-miterlimit:4;stroke-dasharray:none;stroke-opacity:1;fill-opacity:1"
     sodipodi:nodetypes="ccccccccc" />
  <path
     inkscape:connector-curvature="0"
     id="path7072"
     d="m 7.8050848,20.601562 0,-4.039062 c 0,-0.07686 0.036183,-0.113348 0.112884,-0.113348 l 0.6835937,0 c 0.066718,0 0.1060646,0.039 0.1060646,0.105535 l 0,4.039063 c 0,0.06939 -0.040396,0.113877 -0.1021583,0.113877 l -0.6953125,0 c -0.062478,0 -0.1050715,-0.02765 -0.1050715,-0.106065 z"
     style="fill:#ffffff;fill-rule:evenodd;stroke:#ffffff;stroke-width:0.1;stroke-linecap:butt;stroke-linejoin:miter;stroke-miterlimit:4;stroke-dasharray:none;stroke-opacity:1;fill-opacity:1"
     sodipodi:nodetypes="ccccccccc" />
  <path
     inkscape:connector-curvature="0"
     id="path7074"
     d="m 10.004237,21.254237 0,-6.508144 c 0,-0.235384 0.150537,-0.394398 0.390294,-0.394398 l 1.394532,0 c 0.27182,0 0.414327,0.14945 0.414327,0.386586 l 0,1.710871 -0.54661,0 0,-1.429621 c 0,-0.07566 -0.03156,-0.121226 -0.117717,-0.121226 l -0.886719,0 c -0.0693,0 -0.101497,0.04416 -0.101497,0.113414 l 0,2.594213 1.652543,0 0,0.533898 -1.652543,0 0,3.114407 z"
     style="fill:#71bf44;fill-rule:evenodd;stroke:#71bf44;stroke-width:0.1;stroke-linecap:butt;stroke-linejoin:miter;stroke-miterlimit:4;stroke-dasharray:none;stroke-opacity:1;fill-opacity:1"
     sodipodi:nodetypes="ccccccccccccccccc" />
  <path
     inkscape:connector-curvature="0"
     id="path7076"
     d="m 13.004237,17.605932 0,-1.324682 c 0,-0.223624 0.133845,-0.365996 0.370763,-0.365996 l 1.175781,0 c 0.25071,0 0.398372,0.147349 0.398372,0.354277 l 0,4.984706 -1.538997,0 c -0.262913,0 -0.405919,-0.142145 -0.405919,-0.410487 l 0,-1.714844 c 0,-0.18828 0.06076,-0.328916 0.225149,-0.423828 l 1.173156,-0.565248 0,-1.592955 c 0,-0.05997 -0.02988,-0.09772 -0.09785,-0.09772 l -0.648438,0 c -0.07034,0 -0.105403,0.04126 -0.105403,0.109442 l 0,1.047338 z"
     style="fill:#71bf44;fill-rule:evenodd;stroke:#71bf44;stroke-width:0.1;stroke-linecap:butt;stroke-linejoin:miter;stroke-miterlimit:4;stroke-dasharray:none;stroke-opacity:1;fill-opacity:1"
     sodipodi:nodetypes="ccccccccccccccccc" />
  <path
     inkscape:connector-curvature="0"
     id="path7082"
     d="m 13.550847,20.59375 0,-1.21875 c 0,-0.09348 0.0352,-0.141847 0.11039,-0.185256 l 0.741305,-0.376185 0,1.894068 -0.734573,0 c -0.07061,0 -0.117122,-0.04066 -0.117122,-0.113877 z"
     style="fill:#ffffff;fill-rule:evenodd;stroke:#ffffff;stroke-width:0.1;stroke-linecap:butt;stroke-linejoin:miter;stroke-miterlimit:4;stroke-dasharray:none;stroke-opacity:1;fill-opacity:1"
     sodipodi:nodetypes="ccccccc" />
  <path
     inkscape:connector-curvature="0"
     id="path7084"
     d="m 15.648305,21.254237 0,-5.338983 0.559322,0 0,5.338983 z"
     style="fill:#71bf44;fill-rule:evenodd;stroke:#71bf44;stroke-width:0.1;stroke-linecap:butt;stroke-linejoin:miter;stroke-opacity:1;stroke-miterlimit:4;stroke-dasharray:none;fill-opacity:1" />
  <path
     inkscape:connector-curvature="0"
     id="path7086"
     d="m 15.648305,15.241525 0,-0.533898 0.559322,0 0,0.533898 z"
     style="fill:#71bf44;fill-rule:evenodd;stroke:#71bf44;stroke-width:0.1;stroke-linecap:butt;stroke-linejoin:miter;stroke-opacity:1;stroke-miterlimit:4;stroke-dasharray:none;fill-opacity:1" />
  <path
     inkscape:connector-curvature="0"
     id="path7088"
     d="m 16.855932,21.254237 1.550848,-5.338983 0.648305,0 -1.56356,5.338983 z"
     style="fill:#71bf44;fill-rule:evenodd;stroke:#71bf44;stroke-width:0.1;stroke-linecap:butt;stroke-linejoin:miter;stroke-opacity:1;stroke-miterlimit:4;stroke-dasharray:none;fill-opacity:1" />
  <path
     inkscape:connector-curvature="0"
     id="path7090"
     d="m 18.40678,21.254237 -1.550848,-5.338983 0.635593,0 1.56356,5.338983 z"
     style="fill:#71bf44;fill-rule:evenodd;stroke:#71bf44;stroke-width:0.1;stroke-linecap:butt;stroke-linejoin:miter;stroke-opacity:1;stroke-miterlimit:4;stroke-dasharray:none;fill-opacity:1" />
  <path
     inkscape:connector-curvature="0"
     id="path7076-2"
     d="m 19.616503,17.6074 0,-1.324682 c 0,-0.223624 0.133845,-0.365996 0.370763,-0.365996 l 1.175781,0 c 0.25071,0 0.398372,0.147349 0.398372,0.354277 l 0,4.984706 -1.538997,0 c -0.262913,0 -0.405919,-0.142145 -0.405919,-0.410487 l 0,-1.714844 c 0,-0.18828 0.06076,-0.328916 0.225149,-0.423828 l 1.173156,-0.565248 0,-1.592955 c 0,-0.05997 -0.02988,-0.09772 -0.09785,-0.09772 l -0.648438,0 c -0.07034,0 -0.105403,0.04126 -0.105403,0.109442 l 0,1.047338 z"
     style="fill:#71bf44;fill-rule:evenodd;stroke:#71bf44;stroke-width:0.1;stroke-linecap:butt;stroke-linejoin:miter;stroke-miterlimit:4;stroke-dasharray:none;stroke-opacity:1;fill-opacity:1"
     sodipodi:nodetypes="ccccccccccccccccc" />
  <path
     inkscape:connector-curvature="0"
     id="path7082-7"
     d="m 20.163113,20.595218 0,-1.21875 c 0,-0.09348 0.0352,-0.141847 0.11039,-0.185256 l 0.741305,-0.376185 0,1.894068 -0.734573,0 c -0.07061,0 -0.117122,-0.04066 -0.117122,-0.113877 z"
     style="fill:#ffffff;fill-rule:evenodd;stroke:#ffffff;stroke-width:0.1;stroke-linecap:butt;stroke-linejoin:miter;stroke-miterlimit:4;stroke-dasharray:none;stroke-opacity:1;fill-opacity:1"
     sodipodi:nodetypes="ccccccc" />
  <path
     style="fill:#6d6e71;fill-rule:evenodd;stroke:none;stroke-width:0.1;stroke-linecap:butt;stroke-linejoin:miter;stroke-miterlimit:4;stroke-dasharray:none;stroke-opacity:1;fill-opacity:1"
     d="m 17.65625,13.390625 c -4.213542,0 -8.0520833,-0.697917 -11.328125,-2.921875 l 0,-6.15625 c 2.8072917,3.09375 6.71875,4.03125 11.328125,4.03125 z"
     id="path7181"
     inkscape:connector-curvature="0"
     sodipodi:nodetypes="ccccc" />
  <path
     style="fill:#0066b3;fill-rule:evenodd;stroke:none;stroke-width:0.1;stroke-linecap:butt;stroke-linejoin:miter;stroke-miterlimit:4;stroke-dasharray:none;stroke-opacity:1;fill-opacity:1"
     d="M 17.65625,13.390625 C 14.96875,12.635417 11.21875,10.973958 8.703125,8.40625 l 0,-6.765625 c 1.890625,2.6822917 5,5.0520833 8.953125,6.6875 z"
     id="path7179"
     inkscape:connector-curvature="0"
     sodipodi:nodetypes="ccccc" />
  <path
     style="fill:#71bf44;fill-rule:evenodd;stroke:none;stroke-width:0.1;stroke-linecap:butt;stroke-linejoin:miter;stroke-miterlimit:4;stroke-dasharray:none;stroke-opacity:1;fill-opacity:1"
     d="M 17.65625,13.390625 C 16.057292,12.59375 14.098958,11.09375 13.046875,9.359375 l 0,-6.734375 c 0.848958,2.6145833 3.197917,4.6354167 4.609375,5.6875 z"
     id="path7177"
     inkscape:connector-curvature="0"
     sodipodi:nodetypes="ccccc" />
</svg>
